<?xml version="1.0" encoding="UTF-8"?>
<svg id="Layer_1" data-name="Layer 1" xmlns="http://www.w3.org/2000/svg" viewBox="0 0 2160 2160">
  <defs>
    <style>
      .cls-1 {
        fill: #d6d9c1;
      }

      .cls-2 {
        fill: #012615;
      }
    </style>
  </defs>
  <path class="cls-1" d="M1080,244.36c-88.93,0-172.77,36.72-253.86,72.22-17.33,7.59-35.24,15.43-52.82,22.74-17.23,7.16-34.89,14.19-51.98,20.99-84.01,33.43-170.88,68.01-231.95,129.08-61.07,61.07-95.65,147.95-129.08,231.96-6.8,17.08-13.83,34.74-20.99,51.97-7.31,17.58-15.15,35.49-22.74,52.82-35.51,81.08-72.22,164.93-72.22,253.86s36.72,172.78,72.23,253.86c7.58,17.32,15.43,35.24,22.74,52.81,7.16,17.23,14.19,34.89,20.99,51.97,33.43,84.01,68.01,170.88,129.08,231.96,61.08,61.08,147.96,95.65,231.98,129.09,17.07,6.8,34.73,13.82,51.95,20.98,17.58,7.31,35.5,15.15,52.82,22.74,81.08,35.51,164.92,72.22,253.85,72.22s172.77-36.72,253.85-72.22c17.33-7.59,35.24-15.44,52.82-22.74,17.22-7.16,34.88-14.19,51.96-20.98,84.02-33.43,170.89-68.01,231.97-129.08,61.07-61.07,95.65-147.95,129.08-231.96,6.8-17.08,13.83-34.75,20.99-51.97,7.31-17.58,15.15-35.5,22.74-52.82,35.51-81.08,72.22-164.93,72.22-253.86s-36.72-172.77-72.22-253.86c-7.59-17.33-15.43-35.24-22.74-52.82-7.16-17.23-14.19-34.89-20.99-51.98-33.43-84.01-68.01-170.88-129.08-231.95-61.07-61.07-147.94-95.64-231.95-129.08-17.08-6.8-34.75-13.83-51.98-20.99-17.58-7.31-35.49-15.15-52.82-22.74-81.08-35.51-164.93-72.22-253.86-72.22Z"/>
  <g>
    <path class="cls-2" d="M1080,1715.94c-65.11,0-121.35-27.56-175.73-54.22-18.93-9.28-36.81-18.04-54.68-25.45-18.64-7.73-37.9-14.45-58.28-21.56-57.34-20.01-116.64-40.7-160.98-85.03-44.33-44.34-65.03-103.64-85.03-160.98-7.11-20.39-13.83-39.65-21.56-58.28-7.41-17.88-16.17-35.76-25.45-54.69-26.65-54.39-54.22-110.63-54.22-175.73s27.56-121.35,54.22-175.73c9.28-18.93,18.04-36.81,25.45-54.68,7.73-18.64,14.45-37.9,21.56-58.28,20.01-57.35,40.7-116.65,85.03-160.98,44.34-44.34,103.63-65.03,160.98-85.03,20.39-7.11,39.65-13.83,58.28-21.56,17.87-7.41,35.75-16.17,54.68-25.45,54.39-26.65,110.63-54.22,175.73-54.22s121.35,27.56,175.73,54.22c18.93,9.28,36.81,18.04,54.68,25.45,18.64,7.73,37.9,14.45,58.28,21.56,57.34,20.01,116.64,40.7,160.98,85.03,44.34,44.34,65.03,103.64,85.03,160.98,7.11,20.39,13.83,39.65,21.56,58.28,7.41,17.87,16.17,35.75,25.45,54.68,26.65,54.39,54.22,110.63,54.22,175.73s-27.56,121.34-54.22,175.73c-9.28,18.93-18.04,36.81-25.45,54.69-7.73,18.63-14.45,37.89-21.56,58.28-20.01,57.35-40.7,116.64-85.04,160.98-44.34,44.33-103.63,65.02-160.98,85.03-20.39,7.12-39.65,13.83-58.28,21.56-17.87,7.41-35.75,16.17-54.68,25.45-54.39,26.65-110.63,54.22-175.73,54.22ZM1080,499.29c-52.3,0-102.69,24.7-151.42,48.58-18.86,9.24-38.36,18.8-57.83,26.87-20.1,8.34-41.02,15.63-61.25,22.69-53.85,18.79-104.71,36.53-140.12,71.94-35.41,35.4-53.15,86.27-71.94,140.12-7.06,20.23-14.35,41.14-22.69,61.25-8.07,19.47-17.63,38.97-26.87,57.83-23.89,48.73-48.58,99.13-48.58,151.42s24.7,102.69,48.58,151.42c9.24,18.86,18.8,38.36,26.88,57.83,8.34,20.1,15.63,41.02,22.69,61.25,18.79,53.85,36.53,104.71,71.94,140.11,35.4,35.41,86.27,53.15,140.12,71.94,20.23,7.06,41.15,14.36,61.25,22.69,19.47,8.07,38.97,17.63,57.83,26.87,48.73,23.88,99.13,48.58,151.42,48.58s102.69-24.7,151.42-48.58c18.86-9.24,38.36-18.8,57.83-26.87,20.1-8.34,41.02-15.63,61.25-22.69,53.85-18.79,104.71-36.53,140.12-71.94,35.41-35.4,53.15-86.27,71.94-140.12,7.06-20.22,14.35-41.14,22.69-61.24,8.07-19.47,17.63-38.97,26.88-57.83,23.88-48.73,48.58-99.13,48.58-151.42s-24.7-102.69-48.58-151.42c-9.24-18.86-18.8-38.36-26.87-57.83-8.34-20.1-15.63-41.02-22.69-61.25-18.79-53.85-36.53-104.71-71.94-140.12-35.4-35.4-86.27-53.15-140.12-71.94-20.23-7.06-41.15-14.35-61.25-22.69-19.47-8.07-38.97-17.63-57.83-26.87-48.73-23.89-99.13-48.58-151.42-48.58Z"/>
    <path class="cls-2" d="M1259.65,1066c14.22-14.97,22.7-36,22.7-64.61,0-72.87-52.05-97.59-117.11-97.59h-299.28v52.05h56.38v84.6c-90.28-13.66-159.88-42.6-159.88-112.07,0-50.32,36.64-86.97,108.9-108.92,63.22-19.21,138.28-22.07,177.39-22.07,114.4,0,238.65,17.28,317.55,33.58v104.26h55.05v-149.21l-1.7-.43c-98.35-25.07-251.24-43.26-363.55-43.26-63.64,0-154.8,5.74-227.66,33.11-83.37,31.31-125.64,83.7-125.64,155.69,0,110.83,98.57,149.93,219.53,166.51v106.53h-56.38v52.05h160.05v-52.05h-47.71v-100.4c37.24,3.22,75.44,5.12,112.62,6.97l12.35.66,51.56,77.14,8.82,15.61h-41.35v52.05h171.76v-52.05h-55.95l-68.95-88.98c135.07,8.76,241.26,25.63,241.26,108.18,0,49.47-38.35,86.93-114,111.35-78.06,25.2-170.92,27.92-207.22,27.92-112.58,0-224.58-17.54-342.36-53.63v-109.95h-55.97v149.96l1.5.53c125.18,44.57,259.55,68.13,388.56,68.13s218.62-24.64,256.52-39.32c87.39-33.87,131.71-86.94,131.71-157.75,0-102.74-93.81-139.24-209.49-154.61ZM1166.53,1046.49h-188.25v-90.65h188.68c33.83,0,58.12,11.71,58.12,45.54s-24.72,45.11-58.55,45.11Z"/>
    <path class="cls-2" d="M1080,1970.87c-100.49,0-189.72-39.07-276.01-76.86-17.88-7.83-34.77-15.23-51.87-22.34-16.83-7-34.29-13.94-51.17-20.66-89.22-35.51-181.48-72.23-250.61-141.35-69.13-69.13-105.84-161.38-141.34-250.59-6.72-16.89-13.67-34.36-20.67-51.19-7.11-17.1-14.5-33.98-22.33-51.86-37.79-86.29-76.86-175.52-76.86-276.02s39.08-189.72,76.86-276.01c7.83-17.88,15.22-34.76,22.33-51.86,7-16.84,13.95-34.3,20.67-51.19,35.51-89.22,72.22-181.47,141.35-250.59,69.12-69.12,161.37-105.84,250.59-141.34,16.89-6.72,34.36-13.67,51.2-20.67,17.1-7.11,33.99-14.5,51.86-22.33,86.29-37.79,175.52-76.86,276.01-76.86s189.72,39.07,276.01,76.86c17.88,7.83,34.76,15.22,51.86,22.33,16.84,7,34.31,13.95,51.2,20.67,89.21,35.51,181.46,72.22,250.58,141.34s105.84,161.37,141.34,250.59c6.72,16.89,13.67,34.36,20.67,51.2,7.11,17.1,14.5,33.99,22.33,51.86,37.79,86.29,76.86,175.52,76.86,276.01s-39.07,189.72-76.86,276.01c-7.83,17.87-15.22,34.76-22.33,51.87-7,16.84-13.95,34.31-20.67,51.2-35.51,89.21-72.22,181.46-141.34,250.59-69.13,69.13-161.39,105.84-250.6,141.35-16.89,6.72-34.35,13.67-51.18,20.66-17.1,7.11-33.99,14.51-51.87,22.34-86.29,37.79-175.52,76.86-276.01,76.86ZM1080,244.36c-88.93,0-172.77,36.72-253.86,72.22-17.33,7.59-35.24,15.43-52.82,22.74-17.23,7.16-34.89,14.19-51.98,20.99-84.01,33.43-170.88,68.01-231.95,129.08-61.07,61.07-95.65,147.95-129.08,231.96-6.8,17.08-13.83,34.74-20.99,51.97-7.31,17.58-15.15,35.49-22.74,52.82-35.51,81.08-72.22,164.93-72.22,253.86s36.72,172.78,72.23,253.86c7.58,17.32,15.43,35.24,22.74,52.81,7.16,17.23,14.19,34.89,20.99,51.97,33.43,84.01,68.01,170.88,129.08,231.96,61.08,61.08,147.96,95.65,231.98,129.09,17.07,6.8,34.73,13.82,51.95,20.98,17.58,7.31,35.5,15.15,52.82,22.74,81.08,35.51,164.92,72.22,253.85,72.22s172.77-36.72,253.85-72.22c17.33-7.59,35.24-15.44,52.82-22.74,17.22-7.16,34.88-14.19,51.96-20.98,84.02-33.43,170.89-68.01,231.97-129.08,61.07-61.07,95.65-147.95,129.08-231.96,6.8-17.08,13.83-34.75,20.99-51.97,7.31-17.58,15.15-35.5,22.74-52.82,35.51-81.08,72.22-164.93,72.22-253.86s-36.72-172.77-72.22-253.86c-7.59-17.33-15.43-35.24-22.74-52.82-7.16-17.23-14.19-34.89-20.99-51.98-33.43-84.01-68.01-170.88-129.08-231.95-61.07-61.07-147.94-95.64-231.95-129.08-17.08-6.8-34.75-13.83-51.98-20.99-17.58-7.31-35.49-15.15-52.82-22.74-81.08-35.51-164.93-72.22-253.86-72.22Z"/>
    <path class="cls-2" d="M1080,1843.41c-81.91,0-153.94-32.97-223.59-64.85-19.17-8.78-37.27-17.07-55.51-24.65-18.65-7.75-38.29-15.21-57.29-22.43-72.34-27.47-147.15-55.88-203.18-111.91-56.04-56.04-84.45-130.85-111.92-203.19-7.21-19-14.67-38.64-22.42-57.28-7.58-18.24-15.87-36.34-24.64-55.51-31.88-69.65-64.85-141.68-64.85-223.6s32.97-153.94,64.85-223.6c8.77-19.17,17.06-37.27,24.64-55.51,7.75-18.64,15.21-38.28,22.42-57.28,27.47-72.35,55.88-147.15,111.92-203.19,56.03-56.03,130.84-84.44,203.18-111.91,19-7.22,38.64-14.68,57.28-22.42,18.24-7.58,36.35-15.87,55.51-24.64,69.65-31.88,141.68-64.85,223.59-64.85s153.94,32.97,223.59,64.85c19.17,8.77,37.27,17.06,55.51,24.64,18.64,7.75,38.29,15.21,57.29,22.42,72.34,27.47,147.15,55.88,203.18,111.92,56.03,56.03,84.44,130.84,111.92,203.18,7.21,19,14.67,38.64,22.42,57.28,7.58,18.24,15.87,36.35,24.64,55.51,31.88,69.65,64.85,141.68,64.85,223.59s-32.97,153.94-64.85,223.59c-8.78,19.17-17.06,37.27-24.64,55.51-7.75,18.64-15.21,38.29-22.42,57.28-27.47,72.35-55.88,147.15-111.92,203.19-56.03,56.03-130.84,84.44-203.18,111.91-19,7.22-38.64,14.68-57.29,22.43-18.24,7.58-36.35,15.87-55.52,24.65-69.65,31.88-141.68,64.85-223.59,64.85ZM1080,371.83c-69.88,0-136.33,30.42-200.6,59.84-18.76,8.59-38.16,17.47-57.3,25.42-19.44,8.08-39.49,15.69-58.88,23.06-69.98,26.58-136.08,51.68-183.74,99.34-47.66,47.66-72.76,113.76-99.34,183.74-7.36,19.39-14.98,39.44-23.06,58.87-7.96,19.14-16.84,38.54-25.42,57.3-29.42,64.27-59.84,130.73-59.84,200.61s30.42,136.34,59.84,200.61c8.59,18.76,17.47,38.16,25.42,57.29,8.08,19.43,15.69,39.48,23.05,58.87,26.58,69.98,51.68,136.08,99.34,183.74,47.66,47.66,113.75,72.76,183.73,99.34,19.39,7.36,39.45,14.98,58.88,23.06,19.14,7.95,38.54,16.84,57.3,25.42,64.27,29.42,130.73,59.84,200.6,59.84s136.33-30.42,200.6-59.84c18.76-8.58,38.16-17.47,57.31-25.42,19.43-8.08,39.49-15.7,58.88-23.06,69.98-26.58,136.07-51.68,183.73-99.34,47.66-47.66,72.76-113.76,99.34-183.74,7.36-19.39,14.98-39.44,23.06-58.87,7.96-19.14,16.84-38.54,25.42-57.3,29.42-64.27,59.84-130.73,59.84-200.6s-30.42-136.33-59.84-200.6c-8.59-18.76-17.47-38.16-25.42-57.3-8.08-19.43-15.69-39.48-23.06-58.87-26.58-69.98-51.68-136.08-99.34-183.74-47.66-47.66-113.75-72.76-183.73-99.34-19.39-7.36-39.44-14.98-58.88-23.06-19.14-7.96-38.54-16.84-57.3-25.42-64.27-29.42-130.73-59.84-200.6-59.84Z"/>
  </g>
</svg>