<?xml version="1.0" encoding="UTF-8"?>
<svg id="Layer_1" data-name="Layer 1" xmlns="http://www.w3.org/2000/svg" viewBox="0 0 3840 1807.96">
  <defs>
    <style>
      .cls-1 {
        fill: #d6d9c1;
      }

      .cls-2 {
        fill: #012615;
      }
    </style>
  </defs>
  <g>
    <g>
      <path class="cls-2" d="M304.04,1214.63h30.44v27.65c25.62,6.59,50.47,9.89,79.89,9.89,16.74,0,69.75-2.03,69.75-25.62,0-15.98-26.12-17.25-69.24-19.53-50.98-2.79-109.57-5.83-109.57-53.26s59.1-56.31,102.22-56.31c28.91,0,65.94,4.06,96.13,10.65v50.47h-30.43v-24.86c-21.56-3.55-45.91-5.83-71.02-5.83-12.68,0-63.66,1.27-63.66,24.1,0,20.54,40.07,22.07,77.87,23.59,49.97,2.03,100.95,6.85,100.95,49.46,0,48.19-64.17,57.57-108.81,57.57-33.48,0-69.24-5.33-104.5-17.25v-50.73Z"/>
      <path class="cls-2" d="M681.46,1248.37h43.12v30.44h-118.95v-30.44h43.12v-116.67h-63.41v27.9h-30.44v-58.34h220.66v58.34h-30.44v-27.9h-63.66v116.67Z"/>
      <path class="cls-2" d="M972.14,1248.37h18.77l-14.46-9.13-32.97-23.84h-55.55v32.97h27.9v30.44h-93.59v-30.44h32.97v-116.67h-32.97v-30.44h175.01c38.04,0,68.48,14.46,68.48,57.07s-30.94,56.05-68.23,56.05h-6.09l48.44,33.99h32.72v30.44h-100.44v-30.44ZM998.01,1184.7c19.78,0,34.24-6.59,34.24-26.38s-14.2-26.63-33.99-26.63h-110.33v53.01h110.08Z"/>
      <path class="cls-2" d="M1243.53,1097.45c84.46,0,126.82,35.26,126.82,92.58s-42.36,92.58-126.82,92.58-126.82-35.26-126.82-92.58,42.36-92.58,126.82-92.58ZM1243.53,1251.92c61.38,0,93.34-23.59,93.34-61.89s-31.96-62.14-93.34-62.14-93.59,23.59-93.59,62.14,32.21,61.89,93.59,61.89Z"/>
      <path class="cls-2" d="M1697.3,1131.7h-32.97v147.11h-32.72l-147.11-136.2.76,26.63v79.13h27.9v30.44h-93.59v-30.44h32.97v-116.67h-32.97v-30.44h65.69l146.85,136.46-.51-27.39v-78.63h-27.9v-30.44h93.59v30.44Z"/>
      <path class="cls-2" d="M1949.93,1159.6v-24.35c-21.3-4.31-46.92-7.36-70-7.36-70.51,0-97.65,25.87-97.65,62.14s29.17,61.89,87.25,61.89,93.34-18.26,93.34-45.65v-1.02h-93.34v-30.69h126.06v20.8c0,65.44-59.86,87.25-126.06,87.25-79.89,0-120.47-39.82-120.47-92.58s38.55-92.58,130.87-92.58c47.18,0,89.03,10.91,100.44,14.2v47.94h-30.44Z"/>
      <path class="cls-2" d="M2332.42,1248.37h18.77l-14.46-9.13-32.97-23.84h-55.54v32.97h27.9v30.44h-93.59v-30.44h32.97v-116.67h-32.97v-30.44h175.01c38.04,0,68.48,14.46,68.48,57.07s-30.94,56.05-68.23,56.05h-6.09l48.44,33.99h32.72v30.44h-100.44v-30.44ZM2358.29,1184.7c19.78,0,34.24-6.59,34.24-26.38s-14.21-26.63-33.99-26.63h-110.33v53.01h110.08Z"/>
      <path class="cls-2" d="M2603.82,1097.45c84.46,0,126.82,35.26,126.82,92.58s-42.36,92.58-126.82,92.58-126.82-35.26-126.82-92.58,42.36-92.58,126.82-92.58ZM2603.82,1251.92c61.38,0,93.34-23.59,93.34-61.89s-31.96-62.14-93.34-62.14-93.59,23.59-93.59,62.14,32.21,61.89,93.59,61.89Z"/>
      <path class="cls-2" d="M2900.07,1097.45c84.46,0,126.82,35.26,126.82,92.58s-42.36,92.58-126.82,92.58-126.82-35.26-126.82-92.58,42.36-92.58,126.82-92.58ZM2900.07,1251.92c61.38,0,93.34-23.59,93.34-61.89s-31.96-62.14-93.34-62.14-93.59,23.59-93.59,62.14,32.21,61.89,93.59,61.89Z"/>
      <path class="cls-2" d="M3188.47,1248.37h43.12v30.44h-118.95v-30.44h43.12v-116.67h-63.41v27.9h-30.44v-58.34h220.66v58.34h-30.44v-27.9h-63.66v116.67Z"/>
      <path class="cls-2" d="M3322.65,1214.63h30.44v27.65c25.62,6.59,50.47,9.89,79.9,9.89,16.74,0,69.75-2.03,69.75-25.62,0-15.98-26.12-17.25-69.24-19.53-50.98-2.79-109.57-5.83-109.57-53.26s59.1-56.31,102.21-56.31c28.91,0,65.95,4.06,96.13,10.65v50.47h-30.44v-24.86c-21.56-3.55-45.91-5.83-71.02-5.83-12.68,0-63.66,1.27-63.66,24.1,0,20.54,40.08,22.07,77.87,23.59,49.97,2.03,100.95,6.85,100.95,49.46,0,48.19-64.17,57.57-108.81,57.57-33.48,0-69.24-5.33-104.5-17.25v-50.73Z"/>
    </g>
    <g>
      <path class="cls-2" d="M904.84,1426.37l-26.28,1.72c-.47-15.64-6.73-22.99-17.99-22.99-12.67,0-19.4,11.73-19.4,36.29s6.88,33.47,20.65,33.47c9.86,0,16.74-7.04,18.61-20.18l24.4,1.56c-2.66,24.09-19.24,39.11-44.27,39.11-29.09,0-47.4-22.53-47.4-55.22s18.77-55.22,48.18-55.22c25.5,0,40.51,13.92,43.49,41.45Z"/>
      <path class="cls-2" d="M977.25,1386.48v41.92h33.16v-41.92h25.03v107.31h-25.03v-44.27h-33.16v44.27h-25.03v-107.31h25.03Z"/>
      <path class="cls-2" d="M1133.98,1386.48c11.42,0,17.05,1.1,22.37,3.44,10.17,4.54,17.52,15.33,17.52,28.78,0,12.36-6.88,23.31-18.61,27.69l19.87,47.4h-27.84l-16.42-42.39h-18.3v42.39h-25.03v-107.31h46.46ZM1112.55,1405.57v27.37h20.8c10.01,0,14.55-7.2,14.55-14.39,0-5.47-3.6-12.98-15.01-12.98h-20.34Z"/>
      <path class="cls-2" d="M1222.04,1493.79v-107.31h25.03v107.31h-25.03Z"/>
      <path class="cls-2" d="M1375.32,1410.1l-21.28,7.04c-3.13-9.23-8.92-12.67-18.46-12.67s-14.86,3.6-14.86,10.01c0,5.32,4.54,8.76,13.14,10.32,11.11,2.03,22.52,4.85,29.56,9.07,6.41,3.75,14.86,11.57,14.86,25.81,0,10.79-6.57,35.67-44.42,35.67-23.15,0-39.11-11.11-43.33-29.72l23.15-5.32c2.66,10.17,10.17,15.17,22.21,15.17,10.01,0,16.9-4.22,16.9-11.57,0-5.63-4.23-9.07-15.96-11.42-16.42-3.13-27.37-7.35-32.69-12.83-5.32-5.47-7.98-11.73-7.98-20.8,0-19.55,15.17-33.95,38.64-33.95,21.74,0,34.88,8.92,40.52,25.18Z"/>
      <path class="cls-2" d="M1496.39,1386.48v21.27h-26.91v86.03h-25.03v-86.03h-27.22v-21.27h79.15Z"/>
      <path class="cls-2" d="M1541.11,1493.79v-107.31h25.03v107.31h-25.03Z"/>
      <path class="cls-2" d="M1673.6,1386.48l33.63,107.31h-27.06l-6.57-22.06h-34.73l-6.73,22.06h-22.06l34.57-107.31h28.94ZM1644.97,1452.02h22.84l-11.42-37.54-11.42,37.54Z"/>
      <path class="cls-2" d="M1777.3,1386.48l35.82,63.04h.31v-63.04h19.39v107.31h-21.43l-41.14-72.11h-.63v72.11h-19.4v-107.31h27.06Z"/>
      <path class="cls-2" d="M2049.77,1426.37l-26.28,1.72c-.47-15.64-6.73-22.99-17.99-22.99-12.67,0-19.4,11.73-19.4,36.29s6.88,33.47,20.65,33.47c9.85,0,16.74-7.04,18.61-20.18l24.4,1.56c-2.66,24.09-19.24,39.11-44.27,39.11-29.1,0-47.4-22.53-47.4-55.22s18.77-55.22,48.18-55.22c25.5,0,40.51,13.92,43.49,41.45Z"/>
      <path class="cls-2" d="M2184.6,1439.98c0,29.1-14.23,55.38-46.61,55.38s-45.05-28.47-45.05-55.38c0-32.22,17.36-55.06,46.3-55.06,35.19,0,45.36,33.32,45.36,55.06ZM2139.39,1474.86c15.01,0,18.93-16.58,18.93-34.73s-3.75-34.73-19.55-34.73c-14.71,0-19.55,15.8-19.55,34.57,0,23.62,6.73,34.88,20.18,34.88Z"/>
      <path class="cls-2" d="M2286.73,1386.48l33.63,107.31h-27.06l-6.57-22.06h-34.73l-6.73,22.06h-22.06l34.57-107.31h28.94ZM2258.11,1452.02h22.84l-11.42-37.54-11.42,37.54Z"/>
      <path class="cls-2" d="M2447.84,1426.37l-26.28,1.72c-.47-15.64-6.73-22.99-17.99-22.99-12.67,0-19.4,11.73-19.4,36.29s6.88,33.47,20.65,33.47c9.85,0,16.74-7.04,18.61-20.18l24.4,1.56c-2.66,24.09-19.24,39.11-44.27,39.11-29.1,0-47.4-22.53-47.4-55.22s18.77-55.22,48.18-55.22c25.5,0,40.51,13.92,43.49,41.45Z"/>
      <path class="cls-2" d="M2520.26,1386.48v41.92h33.16v-41.92h25.03v107.31h-25.03v-44.27h-33.16v44.27h-25.03v-107.31h25.03Z"/>
      <path class="cls-2" d="M2630.52,1493.79v-107.31h25.03v107.31h-25.03Z"/>
      <path class="cls-2" d="M2735.32,1386.48l35.82,63.04h.31v-63.04h19.4v107.31h-21.43l-41.14-72.11h-.63v72.11h-19.39v-107.31h27.06Z"/>
      <path class="cls-2" d="M2926.46,1421.68l-23.78,3.28c-1.41-12.51-8.29-19.87-18.93-19.87-13.3,0-20.33,13.61-20.33,36.29,0,20.65,7.66,33.63,21.43,33.63,10.48,0,17.83-7.04,17.83-17.21v-1.41h-20.34v-20.02h44.11v57.41h-11.42l-3.6-12.36c-7.67,9.54-16.74,13.92-29.25,13.92-28.47,0-44.42-22.21-44.42-54.28s17.05-56.16,46.61-56.16c22.52,0,38.48,13.45,42.08,36.76Z"/>
    </g>
  </g>
  <g>
    <path class="cls-1" d="M1920,289.32c-36.69,0-71.29,15.15-104.75,29.8-7.15,3.13-14.54,6.37-21.79,9.38-7.11,2.96-14.4,5.86-21.45,8.66-34.66,13.8-70.51,28.06-95.71,53.26-25.2,25.2-39.47,61.05-53.26,95.71-2.81,7.05-5.71,14.34-8.66,21.44-3.01,7.25-6.25,14.65-9.38,21.79-14.65,33.46-29.8,68.05-29.8,104.75s15.15,71.29,29.8,104.75c3.13,7.15,6.37,14.54,9.38,21.79,2.96,7.11,5.86,14.4,8.66,21.45,13.8,34.66,28.06,70.51,53.26,95.71,25.2,25.2,61.05,39.47,95.72,53.26,7.05,2.8,14.33,5.7,21.44,8.66,7.25,3.01,14.65,6.25,21.8,9.38,33.46,14.65,68.05,29.8,104.75,29.8s71.29-15.15,104.75-29.8c7.15-3.13,14.54-6.37,21.8-9.38,7.11-2.95,14.39-5.85,21.44-8.66,34.67-13.8,70.51-28.06,95.72-53.26,25.2-25.2,39.47-61.05,53.26-95.71,2.81-7.05,5.71-14.34,8.66-21.45,3.01-7.25,6.25-14.65,9.38-21.79,14.65-33.46,29.8-68.05,29.8-104.75s-15.15-71.29-29.8-104.75c-3.13-7.15-6.37-14.54-9.38-21.79-2.96-7.11-5.86-14.4-8.66-21.45-13.8-34.66-28.06-70.51-53.26-95.71-25.2-25.2-61.04-39.47-95.71-53.26-7.05-2.81-14.34-5.71-21.45-8.66-7.25-3.01-14.65-6.25-21.79-9.38-33.46-14.65-68.05-29.8-104.75-29.8Z"/>
    <path class="cls-2" d="M1920,896.53c-26.87,0-50.07-11.37-72.51-22.37-7.81-3.83-15.19-7.44-22.56-10.5-7.69-3.19-15.64-5.96-24.05-8.9-23.66-8.26-48.13-16.79-66.42-35.09-18.29-18.3-26.83-42.76-35.09-66.42-2.94-8.41-5.71-16.36-8.9-24.05-3.06-7.38-6.67-14.75-10.5-22.57-11-22.44-22.37-45.65-22.37-72.51s11.37-50.07,22.37-72.51c3.83-7.81,7.44-15.19,10.5-22.56,3.19-7.69,5.96-15.64,8.9-24.05,8.26-23.66,16.79-48.13,35.09-66.43,18.29-18.29,42.76-26.83,66.42-35.09,8.41-2.94,16.36-5.71,24.05-8.9,7.37-3.06,14.75-6.67,22.56-10.5,22.44-11,45.65-22.37,72.51-22.37s50.07,11.37,72.51,22.37c7.81,3.83,15.19,7.44,22.56,10.5,7.69,3.19,15.64,5.96,24.05,8.9,23.66,8.26,48.13,16.79,66.42,35.09,18.29,18.3,26.83,42.76,35.09,66.42,2.94,8.41,5.71,16.36,8.9,24.05,3.06,7.37,6.67,14.75,10.5,22.56,11,22.44,22.37,45.65,22.37,72.51s-11.37,50.07-22.37,72.51c-3.83,7.81-7.44,15.19-10.5,22.57-3.19,7.69-5.96,15.63-8.9,24.05-8.26,23.66-16.79,48.13-35.09,66.43-18.29,18.29-42.76,26.83-66.42,35.09-8.41,2.94-16.36,5.71-24.05,8.9-7.37,3.06-14.75,6.67-22.56,10.5-22.44,11-45.65,22.37-72.51,22.37ZM1920,394.51c-21.58,0-42.37,10.19-62.48,20.05-7.78,3.81-15.83,7.76-23.86,11.09-8.29,3.44-16.92,6.45-25.27,9.36-22.22,7.75-43.21,15.07-57.82,29.68-14.61,14.61-21.93,35.6-29.68,57.82-2.91,8.35-5.92,16.98-9.36,25.27-3.33,8.03-7.28,16.08-11.09,23.86-9.86,20.11-20.05,40.9-20.05,62.48s10.19,42.37,20.04,62.48c3.81,7.78,7.76,15.83,11.09,23.86,3.44,8.29,6.45,16.93,9.36,25.27,7.75,22.22,15.07,43.21,29.68,57.81,14.61,14.61,35.6,21.93,57.82,29.68,8.35,2.91,16.98,5.92,25.27,9.36,8.03,3.33,16.08,7.27,23.86,11.09,20.11,9.85,40.9,20.04,62.48,20.04s42.37-10.19,62.48-20.04c7.78-3.81,15.83-7.76,23.86-11.09,8.29-3.44,16.92-6.45,25.27-9.36,22.22-7.75,43.21-15.07,57.82-29.68,14.61-14.61,21.93-35.6,29.68-57.82,2.91-8.34,5.92-16.98,9.36-25.27,3.33-8.03,7.28-16.08,11.09-23.86,9.85-20.11,20.04-40.9,20.04-62.48s-10.19-42.37-20.05-62.48c-3.81-7.78-7.76-15.83-11.09-23.86-3.44-8.29-6.45-16.92-9.36-25.27-7.75-22.22-15.07-43.21-29.68-57.82-14.61-14.61-35.6-21.93-57.82-29.68-8.35-2.91-16.98-5.92-25.27-9.36-8.03-3.33-16.08-7.28-23.86-11.09-20.11-9.86-40.9-20.05-62.48-20.05Z"/>
    <path class="cls-2" d="M1994.13,628.35c5.87-6.18,9.36-14.86,9.36-26.66,0-30.07-21.48-40.27-48.32-40.27h-123.49v21.48h23.27v34.91c-37.25-5.64-65.97-17.58-65.97-46.24,0-20.77,15.12-35.89,44.94-44.94,26.09-7.92,57.06-9.11,73.2-9.11,47.21,0,98.47,7.13,131.03,13.86v43.02h22.71v-61.57l-.7-.18c-40.58-10.34-103.67-17.85-150.01-17.85-26.26,0-63.87,2.37-93.94,13.66-34.4,12.92-51.84,34.53-51.84,64.24,0,45.73,40.67,61.87,90.58,68.7v43.96h-23.27v21.48h66.04v-21.48h-19.69v-41.43c15.37,1.33,31.13,2.11,46.47,2.88l5.1.27,21.28,31.83,3.64,6.44h-17.06v21.48h70.87v-21.48h-23.09l-28.45-36.72c55.73,3.61,99.55,10.58,99.55,44.64,0,20.41-15.83,35.87-47.04,45.95-32.21,10.4-70.53,11.52-85.5,11.52-46.45,0-92.67-7.24-141.26-22.13v-45.37h-23.1v61.88l.62.22c51.65,18.39,107.09,28.11,160.33,28.11s90.21-10.17,105.85-16.23c36.06-13.97,54.34-35.87,54.34-65.09,0-42.39-38.71-57.45-86.44-63.79ZM1955.71,620.3h-77.67v-37.41h77.85c13.96,0,23.98,4.83,23.98,18.79s-10.2,18.61-24.16,18.61Z"/>
    <path class="cls-2" d="M1920,1001.72c-41.47,0-78.28-16.12-113.89-31.71-7.38-3.23-14.35-6.28-21.4-9.22-6.94-2.89-14.15-5.75-21.11-8.52-36.81-14.65-74.88-29.8-103.41-58.33-28.52-28.52-43.67-66.59-58.32-103.4-2.77-6.97-5.64-14.18-8.53-21.12-2.93-7.06-5.98-14.02-9.21-21.4-15.59-35.61-31.72-72.43-31.72-113.89s16.12-78.28,31.72-113.89c3.23-7.38,6.28-14.34,9.21-21.4,2.89-6.95,5.76-14.15,8.53-21.12,14.65-36.81,29.8-74.88,58.32-103.4,28.52-28.52,66.59-43.67,103.4-58.32,6.97-2.77,14.18-5.64,21.13-8.53,7.06-2.93,14.02-5.98,21.4-9.21,35.61-15.59,72.42-31.72,113.89-31.72s78.28,16.12,113.89,31.72c7.38,3.23,14.34,6.28,21.4,9.21,6.95,2.89,14.16,5.76,21.13,8.53,36.81,14.65,74.87,29.8,103.4,58.32,28.52,28.52,43.67,66.59,58.32,103.4,2.77,6.97,5.64,14.18,8.53,21.13,2.93,7.06,5.98,14.02,9.21,21.4,15.59,35.61,31.72,72.42,31.72,113.89s-16.12,78.28-31.71,113.89c-3.23,7.38-6.28,14.34-9.22,21.4-2.89,6.95-5.76,14.16-8.53,21.13-14.65,36.81-29.8,74.87-58.32,103.4-28.52,28.52-66.59,43.67-103.4,58.32-6.97,2.77-14.17,5.64-21.12,8.53-7.06,2.93-14.02,5.99-21.4,9.22-35.61,15.59-72.42,31.71-113.89,31.71ZM1920,289.32c-36.69,0-71.29,15.15-104.75,29.8-7.15,3.13-14.54,6.37-21.79,9.38-7.11,2.96-14.4,5.86-21.45,8.66-34.66,13.8-70.51,28.06-95.71,53.26-25.2,25.2-39.47,61.05-53.26,95.71-2.81,7.05-5.71,14.34-8.66,21.44-3.01,7.25-6.25,14.65-9.38,21.79-14.65,33.46-29.8,68.05-29.8,104.75s15.15,71.29,29.8,104.75c3.13,7.15,6.37,14.54,9.38,21.79,2.96,7.11,5.86,14.4,8.66,21.45,13.8,34.66,28.06,70.51,53.26,95.71,25.2,25.2,61.05,39.47,95.72,53.26,7.05,2.8,14.33,5.7,21.44,8.66,7.25,3.01,14.65,6.25,21.8,9.38,33.46,14.65,68.05,29.8,104.75,29.8s71.29-15.15,104.75-29.8c7.15-3.13,14.54-6.37,21.8-9.38,7.11-2.95,14.39-5.85,21.44-8.66,34.67-13.8,70.51-28.06,95.72-53.26,25.2-25.2,39.47-61.05,53.26-95.71,2.81-7.05,5.71-14.34,8.66-21.45,3.01-7.25,6.25-14.65,9.38-21.79,14.65-33.46,29.8-68.05,29.8-104.75s-15.15-71.29-29.8-104.75c-3.13-7.15-6.37-14.54-9.38-21.79-2.96-7.11-5.86-14.4-8.66-21.45-13.8-34.66-28.06-70.51-53.26-95.71-25.2-25.2-61.04-39.47-95.71-53.26-7.05-2.81-14.34-5.71-21.45-8.66-7.25-3.01-14.65-6.25-21.79-9.38-33.46-14.65-68.05-29.8-104.75-29.8Z"/>
    <path class="cls-2" d="M1920,949.12c-33.8,0-63.52-13.6-92.26-26.76-7.91-3.62-15.38-7.04-22.91-10.17-7.69-3.2-15.8-6.28-23.64-9.25-29.85-11.34-60.72-23.06-83.84-46.18-23.12-23.12-34.84-53.99-46.18-83.84-2.98-7.84-6.05-15.94-9.25-23.63-3.13-7.52-6.55-14.99-10.17-22.9-13.16-28.74-26.76-58.46-26.76-92.26s13.6-63.52,26.76-92.26c3.62-7.91,7.04-15.38,10.17-22.9,3.2-7.69,6.27-15.8,9.25-23.63,11.34-29.85,23.06-60.72,46.18-83.84,23.12-23.12,53.99-34.84,83.84-46.18,7.84-2.98,15.94-6.06,23.64-9.25,7.53-3.13,15-6.55,22.91-10.17,28.74-13.16,58.46-26.76,92.26-26.76s63.52,13.6,92.26,26.76c7.91,3.62,15.38,7.04,22.91,10.17,7.69,3.2,15.8,6.28,23.64,9.25,29.85,11.34,60.72,23.06,83.84,46.18,23.12,23.12,34.84,53.99,46.18,83.84,2.98,7.84,6.05,15.94,9.25,23.64,3.13,7.53,6.55,15,10.17,22.91,13.16,28.74,26.76,58.46,26.76,92.26s-13.6,63.52-26.76,92.26c-3.62,7.91-7.04,15.38-10.17,22.91-3.2,7.69-6.28,15.8-9.25,23.64-11.34,29.85-23.06,60.72-46.18,83.84-23.12,23.12-53.99,34.84-83.84,46.18-7.84,2.98-15.95,6.06-23.64,9.25-7.53,3.13-15,6.55-22.91,10.17-28.74,13.15-58.46,26.76-92.26,26.76ZM1920,341.92c-28.83,0-56.25,12.55-82.77,24.69-7.74,3.54-15.75,7.21-23.64,10.49-8.02,3.33-16.29,6.48-24.29,9.51-28.87,10.97-56.15,21.32-75.81,40.99-19.67,19.67-30.02,46.94-40.99,75.82-3.04,8-6.18,16.27-9.51,24.29-3.28,7.9-6.95,15.9-10.49,23.64-12.14,26.52-24.69,53.94-24.69,82.78s12.55,56.26,24.69,82.78c3.54,7.74,7.21,15.75,10.49,23.64,3.33,8.02,6.47,16.29,9.51,24.29,10.97,28.88,21.32,56.15,40.99,75.82,19.66,19.66,46.94,30.02,75.81,40.99,8,3.04,16.28,6.18,24.3,9.51,7.9,3.28,15.9,6.95,23.64,10.49,26.52,12.14,53.94,24.69,82.77,24.69s56.25-12.55,82.77-24.69c7.74-3.54,15.75-7.21,23.65-10.49,8.02-3.33,16.29-6.48,24.3-9.51,28.87-10.97,56.15-21.32,75.81-40.99,19.67-19.66,30.02-46.94,40.99-75.81,3.04-8,6.18-16.27,9.51-24.29,3.28-7.9,6.95-15.9,10.49-23.64,12.14-26.52,24.69-53.94,24.69-82.77s-12.55-56.25-24.69-82.77c-3.54-7.74-7.21-15.75-10.49-23.64-3.33-8.02-6.48-16.29-9.51-24.29-10.97-28.87-21.32-56.15-40.99-75.81-19.66-19.66-46.94-30.02-75.81-40.99-8-3.04-16.27-6.18-24.29-9.51-7.9-3.28-15.9-6.95-23.64-10.49-26.52-12.14-53.94-24.69-82.77-24.69Z"/>
  </g>
</svg>