<?xml version="1.0" encoding="UTF-8"?>
<svg id="Layer_1" data-name="Layer 1" xmlns="http://www.w3.org/2000/svg" viewBox="0 0 3840 1807.96">
  <defs>
    <style>
      .cls-1 {
        fill: #261e1c;
      }

      .cls-2 {
        fill: #d6d9c1;
      }
    </style>
  </defs>
  <g>
    <g>
      <path class="cls-2" d="M378.44,1227.56h29.03v26.37c24.44,6.29,48.15,9.44,76.21,9.44,15.97,0,66.54-1.94,66.54-24.44,0-15.24-24.92-16.45-66.05-18.63-48.63-2.66-104.53-5.56-104.53-50.81s56.38-53.72,97.51-53.72c27.58,0,62.91,3.87,91.7,10.16v48.15h-29.03v-23.71c-20.57-3.39-43.8-5.56-67.75-5.56-12.1,0-60.73,1.21-60.73,22.99,0,19.6,38.23,21.05,74.28,22.5,47.66,1.94,96.3,6.53,96.3,47.18,0,45.97-61.22,54.92-103.8,54.92-31.94,0-66.05-5.08-99.68-16.45v-48.39Z"/>
      <path class="cls-2" d="M738.49,1259.74h41.13v29.03h-113.48v-29.03h41.13v-111.3h-60.49v26.61h-29.03v-55.65h210.5v55.65h-29.03v-26.61h-60.73v111.3Z"/>
      <path class="cls-2" d="M1015.78,1259.74h17.9l-13.79-8.71-31.45-22.74h-52.99v31.45h26.61v29.03h-89.28v-29.03h31.45v-111.3h-31.45v-29.04h166.95c36.29,0,65.33,13.79,65.33,54.44s-29.52,53.47-65.09,53.47h-5.81l46.21,32.42h31.21v29.03h-95.81v-29.03ZM1040.46,1199.01c18.87,0,32.66-6.29,32.66-25.16s-13.55-25.4-32.42-25.4h-105.25v50.57h105.01Z"/>
      <path class="cls-2" d="M1274.68,1115.77c80.57,0,120.98,33.63,120.98,88.32s-40.41,88.31-120.98,88.31-120.98-33.63-120.98-88.31,40.41-88.32,120.98-88.32ZM1274.68,1263.13c58.55,0,89.04-22.5,89.04-59.04s-30.49-59.28-89.04-59.28-89.28,22.5-89.28,59.28,30.73,59.04,89.28,59.04Z"/>
      <path class="cls-2" d="M1707.55,1148.44h-31.45v140.33h-31.21l-140.33-129.93.72,25.41v75.49h26.62v29.03h-89.28v-29.03h31.45v-111.3h-31.45v-29.04h62.67l140.09,130.17-.48-26.13v-75.01h-26.61v-29.04h89.28v29.04Z"/>
      <path class="cls-2" d="M1948.55,1175.05v-23.23c-20.32-4.11-44.76-7.02-66.78-7.02-67.26,0-93.15,24.68-93.15,59.28s27.83,59.04,83.23,59.04,89.04-17.42,89.04-43.55v-.97h-89.04v-29.28h120.25v19.84c0,62.43-57.1,83.23-120.25,83.23-76.21,0-114.93-37.99-114.93-88.31s36.78-88.32,124.85-88.32c45,0,84.93,10.4,95.82,13.55v45.73h-29.04Z"/>
      <path class="cls-2" d="M2313.43,1259.74h17.91l-13.79-8.71-31.45-22.74h-52.99v31.45h26.61v29.03h-89.28v-29.03h31.45v-111.3h-31.45v-29.04h166.95c36.29,0,65.33,13.79,65.33,54.44s-29.52,53.47-65.09,53.47h-5.81l46.21,32.42h31.21v29.03h-95.82v-29.03ZM2338.11,1199.01c18.87,0,32.67-6.29,32.67-25.16s-13.55-25.4-32.42-25.4h-105.25v50.57h105.01Z"/>
      <path class="cls-2" d="M2572.33,1115.77c80.57,0,120.98,33.63,120.98,88.32s-40.41,88.31-120.98,88.31-120.98-33.63-120.98-88.31,40.41-88.32,120.98-88.32ZM2572.33,1263.13c58.55,0,89.04-22.5,89.04-59.04s-30.49-59.28-89.04-59.28-89.28,22.5-89.28,59.28,30.73,59.04,89.28,59.04Z"/>
      <path class="cls-2" d="M2854.95,1115.77c80.57,0,120.98,33.63,120.98,88.32s-40.41,88.31-120.98,88.31-120.98-33.63-120.98-88.31,40.41-88.32,120.98-88.32ZM2854.95,1263.13c58.55,0,89.04-22.5,89.04-59.04s-30.49-59.28-89.04-59.28-89.28,22.5-89.28,59.28,30.73,59.04,89.28,59.04Z"/>
      <path class="cls-2" d="M3130.06,1259.74h41.13v29.03h-113.48v-29.03h41.13v-111.3h-60.49v26.61h-29.03v-55.65h210.5v55.65h-29.03v-26.61h-60.73v111.3Z"/>
      <path class="cls-2" d="M3258.07,1227.56h29.03v26.37c24.44,6.29,48.15,9.44,76.22,9.44,15.97,0,66.54-1.94,66.54-24.44,0-15.24-24.92-16.45-66.05-18.63-48.63-2.66-104.53-5.56-104.53-50.81s56.38-53.72,97.51-53.72c27.58,0,62.91,3.87,91.7,10.16v48.15h-29.03v-23.71c-20.57-3.39-43.79-5.56-67.75-5.56-12.1,0-60.73,1.21-60.73,22.99,0,19.6,38.23,21.05,74.28,22.5,47.66,1.94,96.3,6.53,96.3,47.18,0,45.97-61.21,54.92-103.8,54.92-31.94,0-66.05-5.08-99.69-16.45v-48.39Z"/>
    </g>
    <g>
      <path class="cls-2" d="M951.58,1429.55l-25.07,1.64c-.45-14.92-6.42-21.94-17.16-21.94-12.09,0-18.5,11.19-18.5,34.62s6.57,31.93,19.7,31.93c9.4,0,15.97-6.71,17.76-19.25l23.28,1.49c-2.54,22.98-18.35,37.31-42.23,37.31-27.75,0-45.22-21.49-45.22-52.68s17.91-52.68,45.96-52.68c24.32,0,38.65,13.28,41.48,39.54Z"/>
      <path class="cls-2" d="M1020.66,1391.5v39.99h31.64v-39.99h23.88v102.37h-23.88v-42.23h-31.64v42.23h-23.87v-102.37h23.87Z"/>
      <path class="cls-2" d="M1170.17,1391.5c10.89,0,16.26,1.04,21.34,3.28,9.7,4.33,16.71,14.62,16.71,27.46,0,11.79-6.57,22.23-17.76,26.41l18.95,45.21h-26.56l-15.67-40.44h-17.46v40.44h-23.88v-102.37h44.32ZM1149.72,1409.7v26.11h19.84c9.55,0,13.88-6.86,13.88-13.73,0-5.22-3.43-12.38-14.32-12.38h-19.4Z"/>
      <path class="cls-2" d="M1254.17,1493.86v-102.37h23.87v102.37h-23.87Z"/>
      <path class="cls-2" d="M1400.4,1414.03l-20.3,6.71c-2.98-8.8-8.5-12.09-17.61-12.09s-14.18,3.43-14.18,9.55c0,5.07,4.33,8.36,12.54,9.85,10.59,1.94,21.49,4.63,28.2,8.66,6.12,3.58,14.18,11.04,14.18,24.62,0,10.3-6.27,34.02-42.38,34.02-22.09,0-37.31-10.59-41.34-28.35l22.09-5.07c2.54,9.7,9.7,14.47,21.19,14.47,9.55,0,16.12-4.03,16.12-11.04,0-5.37-4.03-8.66-15.22-10.89-15.67-2.99-26.11-7.01-31.19-12.24-5.07-5.22-7.61-11.19-7.61-19.85,0-18.65,14.47-32.38,36.86-32.38,20.74,0,33.28,8.51,38.65,24.03Z"/>
      <path class="cls-2" d="M1515.89,1391.5v20.29h-25.67v82.07h-23.87v-82.07h-25.96v-20.29h75.51Z"/>
      <path class="cls-2" d="M1558.56,1493.86v-102.37h23.88v102.37h-23.88Z"/>
      <path class="cls-2" d="M1684.94,1391.5l32.08,102.37h-25.82l-6.27-21.04h-33.13l-6.42,21.04h-21.04l32.98-102.37h27.61ZM1657.64,1454.02h21.79l-10.89-35.81-10.89,35.81Z"/>
      <path class="cls-2" d="M1783.87,1391.5l34.17,60.14h.3v-60.14h18.5v102.37h-20.44l-39.24-68.79h-.6v68.79h-18.5v-102.37h25.82Z"/>
      <path class="cls-2" d="M2043.8,1429.55l-25.07,1.64c-.45-14.92-6.42-21.94-17.16-21.94-12.09,0-18.5,11.19-18.5,34.62s6.57,31.93,19.7,31.93c9.4,0,15.97-6.71,17.76-19.25l23.28,1.49c-2.54,22.98-18.35,37.31-42.23,37.31-27.76,0-45.22-21.49-45.22-52.68s17.91-52.68,45.96-52.68c24.32,0,38.65,13.28,41.48,39.54Z"/>
      <path class="cls-2" d="M2172.42,1442.53c0,27.76-13.58,52.83-44.47,52.83s-42.98-27.16-42.98-52.83c0-30.74,16.56-52.53,44.17-52.53,33.57,0,43.27,31.78,43.27,52.53ZM2129.29,1475.81c14.32,0,18.05-15.82,18.05-33.13s-3.58-33.13-18.65-33.13c-14.03,0-18.65,15.07-18.65,32.98,0,22.53,6.42,33.28,19.25,33.28Z"/>
      <path class="cls-2" d="M2269.85,1391.5l32.08,102.37h-25.82l-6.27-21.04h-33.13l-6.42,21.04h-21.04l32.98-102.37h27.61ZM2242.54,1454.02h21.79l-10.89-35.81-10.89,35.81Z"/>
      <path class="cls-2" d="M2423.54,1429.55l-25.07,1.64c-.45-14.92-6.42-21.94-17.16-21.94-12.09,0-18.5,11.19-18.5,34.62s6.57,31.93,19.7,31.93c9.4,0,15.97-6.71,17.76-19.25l23.28,1.49c-2.54,22.98-18.35,37.31-42.23,37.31-27.76,0-45.22-21.49-45.22-52.68s17.91-52.68,45.96-52.68c24.32,0,38.65,13.28,41.48,39.54Z"/>
      <path class="cls-2" d="M2492.62,1391.5v39.99h31.63v-39.99h23.88v102.37h-23.88v-42.23h-31.63v42.23h-23.88v-102.37h23.88Z"/>
      <path class="cls-2" d="M2597.81,1493.86v-102.37h23.88v102.37h-23.88Z"/>
      <path class="cls-2" d="M2697.78,1391.5l34.17,60.14h.3v-60.14h18.5v102.37h-20.44l-39.24-68.79h-.6v68.79h-18.5v-102.37h25.82Z"/>
      <path class="cls-2" d="M2880.12,1425.07l-22.68,3.13c-1.34-11.94-7.91-18.95-18.06-18.95-12.68,0-19.4,12.98-19.4,34.62,0,19.7,7.31,32.08,20.44,32.08,10,0,17.01-6.71,17.01-16.41v-1.34h-19.4v-19.1h42.08v54.76h-10.89l-3.43-11.79c-7.31,9.1-15.97,13.28-27.9,13.28-27.16,0-42.38-21.19-42.38-51.78s16.26-53.57,44.47-53.57c21.49,0,36.71,12.83,40.14,35.07Z"/>
    </g>
  </g>
  <g>
    <path class="cls-1" d="M1920,344.85c-35.01,0-68.01,14.45-99.92,28.43-6.82,2.99-13.87,6.07-20.79,8.95-6.78,2.82-13.73,5.59-20.46,8.26-33.07,13.16-67.26,26.77-91.3,50.81-24.04,24.04-37.65,58.24-50.81,91.31-2.68,6.72-5.44,13.68-8.26,20.46-2.88,6.92-5.96,13.97-8.95,20.79-13.98,31.92-28.43,64.92-28.43,99.92s14.45,68.01,28.43,99.93c2.99,6.82,6.07,13.87,8.95,20.79,2.82,6.78,5.59,13.73,8.26,20.46,13.16,33.07,26.77,67.26,50.81,91.31,24.04,24.04,58.24,37.65,91.31,50.81,6.72,2.68,13.67,5.44,20.45,8.26,6.92,2.88,13.97,5.96,20.79,8.95,31.92,13.98,64.92,28.43,99.92,28.43s68.01-14.45,99.92-28.43c6.82-2.99,13.87-6.08,20.79-8.95,6.78-2.82,13.73-5.58,20.45-8.26,33.07-13.16,67.27-26.77,91.31-50.81,24.04-24.04,37.65-58.24,50.81-91.3,2.68-6.72,5.44-13.68,8.26-20.46,2.88-6.92,5.96-13.97,8.95-20.79,13.98-31.92,28.43-64.92,28.43-99.92s-14.45-68.01-28.43-99.92c-2.99-6.82-6.07-13.87-8.95-20.79-2.82-6.78-5.59-13.73-8.26-20.46-13.16-33.07-26.77-67.26-50.81-91.3-24.04-24.04-58.23-37.65-91.3-50.81-6.72-2.68-13.68-5.44-20.46-8.26-6.92-2.88-13.97-5.96-20.79-8.95-31.92-13.98-64.92-28.43-99.92-28.43Z"/>
    <path class="cls-2" d="M1920,924.1c-25.63,0-47.77-10.85-69.17-21.34-7.45-3.65-14.49-7.1-21.52-10.02-7.34-3.04-14.92-5.69-22.94-8.49-22.57-7.88-45.91-16.02-63.37-33.47-17.45-17.45-25.6-40.79-33.47-63.37-2.8-8.03-5.45-15.61-8.49-22.94-2.92-7.04-6.37-14.07-10.02-21.53-10.49-21.41-21.34-43.54-21.34-69.17s10.85-47.77,21.34-69.17c3.65-7.45,7.1-14.49,10.02-21.52,3.04-7.34,5.69-14.92,8.49-22.94,7.88-22.57,16.02-45.91,33.47-63.37,17.45-17.45,40.79-25.6,63.37-33.47,8.02-2.8,15.61-5.45,22.94-8.49,7.04-2.92,14.07-6.37,21.52-10.02,21.41-10.49,43.54-21.34,69.17-21.34s47.77,10.85,69.17,21.34c7.45,3.65,14.49,7.1,21.52,10.02,7.34,3.04,14.92,5.69,22.94,8.49,22.57,7.88,45.91,16.02,63.37,33.47,17.45,17.45,25.6,40.79,33.47,63.37,2.8,8.03,5.45,15.61,8.49,22.94,2.92,7.04,6.37,14.07,10.02,21.52,10.49,21.41,21.34,43.54,21.34,69.17s-10.85,47.76-21.34,69.17c-3.65,7.45-7.1,14.49-10.02,21.53-3.04,7.33-5.69,14.91-8.49,22.94-7.88,22.57-16.02,45.91-33.47,63.37-17.45,17.45-40.79,25.59-63.37,33.47-8.02,2.8-15.61,5.45-22.94,8.49-7.04,2.92-14.07,6.37-21.52,10.02-21.41,10.49-43.54,21.34-69.17,21.34ZM1920,445.2c-20.59,0-40.42,9.72-59.6,19.12-7.42,3.64-15.1,7.4-22.76,10.58-7.91,3.28-16.15,6.15-24.11,8.93-21.2,7.4-41.22,14.38-55.15,28.32-13.94,13.94-20.92,33.96-28.32,55.15-2.78,7.96-5.65,16.2-8.93,24.11-3.18,7.66-6.94,15.34-10.58,22.76-9.4,19.18-19.12,39.02-19.12,59.6s9.72,40.42,19.12,59.6c3.64,7.42,7.4,15.1,10.58,22.77,3.28,7.91,6.15,16.15,8.93,24.11,7.4,21.2,14.38,41.22,28.32,55.15,13.94,13.94,33.96,20.92,55.15,28.32,7.96,2.78,16.2,5.65,24.11,8.93,7.66,3.18,15.34,6.94,22.76,10.58,19.18,9.4,39.02,19.12,59.6,19.12s40.42-9.72,59.6-19.12c7.42-3.64,15.1-7.4,22.76-10.58,7.91-3.28,16.15-6.15,24.11-8.93,21.2-7.4,41.22-14.38,55.15-28.32,13.94-13.93,20.92-33.96,28.32-55.15,2.78-7.96,5.65-16.19,8.93-24.11,3.18-7.66,6.94-15.34,10.58-22.77,9.4-19.18,19.12-39.02,19.12-59.6s-9.72-40.42-19.12-59.6c-3.64-7.42-7.4-15.1-10.58-22.76-3.28-7.91-6.15-16.15-8.93-24.11-7.4-21.2-14.38-41.22-28.32-55.15-13.94-13.94-33.96-20.92-55.15-28.32-7.96-2.78-16.2-5.65-24.11-8.93-7.66-3.18-15.34-6.94-22.76-10.58-19.18-9.4-39.02-19.12-59.6-19.12Z"/>
    <path class="cls-2" d="M1990.71,668.26c5.6-5.89,8.93-14.17,8.93-25.43,0-28.68-20.49-38.42-46.1-38.42h-117.81v20.49h22.19v33.3c-35.54-5.38-62.93-16.77-62.93-44.11,0-19.81,14.42-34.23,42.87-42.88,24.89-7.56,54.43-8.69,69.83-8.69,45.03,0,93.94,6.8,124.99,13.22v41.04h21.67v-58.73l-.67-.17c-38.71-9.87-98.89-17.03-143.1-17.03-25.05,0-60.93,2.26-89.61,13.03-32.81,12.33-49.45,32.94-49.45,61.28,0,43.63,38.8,59.02,86.41,65.54v41.93h-22.19v20.49h63v-20.49h-18.78v-39.52c14.66,1.27,29.69,2.02,44.33,2.75l4.86.26,20.3,30.36,3.47,6.15h-16.28v20.49h67.61v-20.49h-22.02l-27.14-35.03c53.17,3.45,94.96,10.09,94.96,42.58,0,19.47-15.1,34.22-44.87,43.83-30.73,9.92-67.28,10.99-81.57,10.99-44.32,0-88.4-6.9-134.76-21.11v-43.28h-22.03v59.03l.59.21c49.28,17.55,102.16,26.82,152.95,26.82s86.06-9.7,100.97-15.48c34.4-13.33,51.84-34.22,51.84-62.1,0-40.44-36.92-54.81-82.46-60.86ZM1954.06,660.59h-74.1v-35.68h74.27c13.32,0,22.88,4.61,22.88,17.93s-9.73,17.76-23.05,17.76Z"/>
    <path class="cls-2" d="M1920,1024.45c-39.56,0-74.68-15.38-108.64-30.25-7.04-3.08-13.68-5.99-20.42-8.79-6.62-2.75-13.5-5.49-20.14-8.13-35.12-13.98-71.44-28.43-98.65-55.64-27.21-27.21-41.66-63.52-55.64-98.64-2.65-6.65-5.38-13.52-8.14-20.15-2.8-6.73-5.71-13.38-8.79-20.41-14.87-33.97-30.26-69.09-30.26-108.65s15.38-74.68,30.26-108.65c3.08-7.04,5.99-13.68,8.79-20.41,2.75-6.63,5.49-13.5,8.14-20.15,13.98-35.12,28.43-71.43,55.64-98.64,27.21-27.21,63.52-41.66,98.64-55.64,6.65-2.65,13.52-5.38,20.15-8.14,6.73-2.8,13.38-5.71,20.41-8.79,33.97-14.87,69.09-30.26,108.65-30.26s74.68,15.38,108.65,30.26c7.04,3.08,13.68,5.99,20.41,8.79,6.63,2.76,13.5,5.49,20.15,8.14,35.12,13.98,71.43,28.43,98.64,55.64,27.21,27.21,41.66,63.52,55.64,98.64,2.65,6.65,5.38,13.52,8.14,20.15,2.8,6.73,5.71,13.38,8.79,20.41,14.87,33.97,30.26,69.09,30.26,108.65s-15.38,74.68-30.25,108.65c-3.08,7.04-5.99,13.68-8.79,20.42-2.76,6.63-5.49,13.5-8.14,20.15-13.98,35.11-28.43,71.43-55.64,98.64-27.21,27.21-63.53,41.66-98.64,55.64-6.65,2.64-13.52,5.38-20.15,8.13-6.73,2.8-13.38,5.71-20.42,8.79-33.97,14.87-69.09,30.25-108.64,30.25ZM1920,344.85c-35.01,0-68.01,14.45-99.92,28.43-6.82,2.99-13.87,6.07-20.79,8.95-6.78,2.82-13.73,5.59-20.46,8.26-33.07,13.16-67.26,26.77-91.3,50.81-24.04,24.04-37.65,58.24-50.81,91.31-2.68,6.72-5.44,13.68-8.26,20.46-2.88,6.92-5.96,13.97-8.95,20.79-13.98,31.92-28.43,64.92-28.43,99.92s14.45,68.01,28.43,99.93c2.99,6.82,6.07,13.87,8.95,20.79,2.82,6.78,5.59,13.73,8.26,20.46,13.16,33.07,26.77,67.26,50.81,91.31,24.04,24.04,58.24,37.65,91.31,50.81,6.72,2.68,13.67,5.44,20.45,8.26,6.92,2.88,13.97,5.96,20.79,8.95,31.92,13.98,64.92,28.43,99.92,28.43s68.01-14.45,99.92-28.43c6.82-2.99,13.87-6.08,20.79-8.95,6.78-2.82,13.73-5.58,20.45-8.26,33.07-13.16,67.27-26.77,91.31-50.81,24.04-24.04,37.65-58.24,50.81-91.3,2.68-6.72,5.44-13.68,8.26-20.46,2.88-6.92,5.96-13.97,8.95-20.79,13.98-31.92,28.43-64.92,28.43-99.92s-14.45-68.01-28.43-99.92c-2.99-6.82-6.07-13.87-8.95-20.79-2.82-6.78-5.59-13.73-8.26-20.46-13.16-33.07-26.77-67.26-50.81-91.3-24.04-24.04-58.23-37.65-91.3-50.81-6.72-2.68-13.68-5.44-20.46-8.26-6.92-2.88-13.97-5.96-20.79-8.95-31.92-13.98-64.92-28.43-99.92-28.43Z"/>
    <path class="cls-2" d="M1920,974.27c-32.24,0-60.59-12.98-88.01-25.53-7.55-3.45-14.67-6.72-21.85-9.7-7.34-3.05-15.07-5.99-22.55-8.83-28.47-10.81-57.92-21.99-79.98-44.05-22.06-22.06-33.24-51.5-44.05-79.98-2.84-7.48-5.78-15.21-8.82-22.55-2.98-7.18-6.25-14.3-9.7-21.85-12.55-27.42-25.53-55.77-25.53-88.01s12.98-60.6,25.53-88.01c3.45-7.54,6.72-14.67,9.7-21.85,3.05-7.34,5.99-15.07,8.83-22.55,10.81-28.48,22-57.92,44.05-79.98,22.06-22.06,51.5-33.24,79.98-44.05,7.48-2.84,15.21-5.78,22.55-8.83,7.18-2.98,14.31-6.25,21.85-9.7,27.42-12.55,55.77-25.53,88.01-25.53s60.59,12.98,88.01,25.53c7.55,3.45,14.67,6.72,21.85,9.7,7.34,3.05,15.07,5.99,22.55,8.83,28.48,10.81,57.92,22,79.98,44.05,22.06,22.06,33.24,51.5,44.05,79.98,2.84,7.48,5.78,15.21,8.83,22.55,2.98,7.18,6.25,14.31,9.7,21.85,12.55,27.42,25.53,55.77,25.53,88.01s-12.98,60.59-25.53,88.01c-3.45,7.55-6.72,14.67-9.7,21.85-3.05,7.34-5.99,15.07-8.83,22.55-10.81,28.48-22,57.92-44.05,79.98-22.06,22.06-51.5,33.24-79.98,44.05-7.48,2.84-15.21,5.78-22.55,8.83-7.18,2.98-14.31,6.25-21.85,9.7-27.42,12.55-55.77,25.53-88.01,25.53ZM1920,395.02c-27.5,0-53.66,11.97-78.96,23.55-7.38,3.38-15.02,6.88-22.55,10.01-7.65,3.18-15.54,6.18-23.17,9.08-27.55,10.46-53.56,20.34-72.32,39.1-18.76,18.76-28.64,44.78-39.1,72.33-2.9,7.63-5.9,15.52-9.08,23.17-3.13,7.53-6.63,15.17-10.01,22.55-11.58,25.3-23.56,51.46-23.56,78.96s11.97,53.67,23.56,78.96c3.38,7.38,6.88,15.02,10.01,22.55,3.18,7.65,6.18,15.54,9.07,23.17,10.46,27.55,20.34,53.57,39.1,72.33,18.76,18.76,44.78,28.64,72.32,39.1,7.63,2.9,15.53,5.9,23.18,9.08,7.53,3.13,15.17,6.63,22.56,10.01,25.3,11.58,51.46,23.55,78.96,23.55s53.66-11.97,78.96-23.55c7.39-3.38,15.02-6.88,22.56-10.01,7.65-3.18,15.54-6.18,23.18-9.08,27.54-10.46,53.56-20.34,72.32-39.1,18.76-18.76,28.64-44.78,39.1-72.32,2.9-7.63,5.9-15.52,9.08-23.17,3.13-7.53,6.63-15.17,10.01-22.55,11.58-25.3,23.55-51.46,23.55-78.96s-11.97-53.66-23.55-78.96c-3.38-7.38-6.88-15.02-10.01-22.55-3.18-7.65-6.18-15.54-9.08-23.17-10.46-27.55-20.34-53.56-39.1-72.32-18.76-18.76-44.78-28.64-72.32-39.1-7.63-2.9-15.53-5.9-23.18-9.08-7.53-3.13-15.17-6.63-22.56-10.01-25.3-11.58-51.46-23.55-78.96-23.55Z"/>
  </g>
</svg>