<?xml version="1.0" encoding="UTF-8"?>
<svg id="Layer_1" data-name="Layer 1" xmlns="http://www.w3.org/2000/svg" viewBox="0 0 3840 845.85">
  <defs>
    <style>
      .cls-1 {
        fill: #012615;
      }
    </style>
  </defs>
  <g>
    <path class="cls-1" d="M233.6,337.59h31.76v28.85c26.73,6.88,52.67,10.32,83.38,10.32,17.47,0,72.79-2.12,72.79-26.73,0-16.68-27.26-18-72.26-20.38-53.2-2.91-114.35-6.09-114.35-55.58s61.67-58.76,106.67-58.76c30.18,0,68.82,4.24,100.32,11.12v52.67h-31.76v-25.94c-22.5-3.71-47.91-6.09-74.12-6.09-13.23,0-66.44,1.32-66.44,25.15,0,21.44,41.82,23.03,81.26,24.62,52.14,2.12,105.35,7.15,105.35,51.62,0,50.29-66.97,60.08-113.55,60.08-34.94,0-72.26-5.56-109.05-18v-52.94Z"/>
    <path class="cls-1" d="M627.47,372.79h45v31.76h-124.14v-31.76h45v-121.76h-66.17v29.12h-31.76v-60.88h230.28v60.88h-31.76v-29.12h-66.44v121.76Z"/>
    <path class="cls-1" d="M930.82,372.79h19.59l-15.09-9.53-34.41-24.88h-57.97v34.41h29.12v31.76h-97.67v-31.76h34.41v-121.76h-34.41v-31.76h182.64c39.7,0,71.47,15.09,71.47,59.56s-32.29,58.5-71.2,58.5h-6.35l50.56,35.47h34.15v31.76h-104.82v-31.76ZM957.82,306.36c20.65,0,35.73-6.88,35.73-27.53s-14.82-27.79-35.47-27.79h-115.14v55.32h114.88Z"/>
    <path class="cls-1" d="M1214.05,215.3c88.14,0,132.35,36.79,132.35,96.61s-44.2,96.61-132.35,96.61-132.34-36.79-132.34-96.61,44.2-96.61,132.34-96.61ZM1214.05,376.5c64.06,0,97.41-24.62,97.41-64.58s-33.35-64.85-97.41-64.85-97.67,24.62-97.67,64.85,33.62,64.58,97.67,64.58Z"/>
    <path class="cls-1" d="M1687.59,251.04h-34.41v153.52h-34.15l-153.52-142.14.79,27.79v82.58h29.12v31.76h-97.67v-31.76h34.41v-121.76h-34.41v-31.76h68.55l153.26,142.4-.53-28.59v-82.05h-29.12v-31.76h97.67v31.76Z"/>
    <path class="cls-1" d="M1951.23,280.15v-25.41c-22.23-4.5-48.97-7.68-73.05-7.68-73.58,0-101.91,27-101.91,64.85s30.44,64.58,91.05,64.58,97.41-19.06,97.41-47.64v-1.06h-97.41v-32.03h131.55v21.71c0,68.29-62.47,91.05-131.55,91.05-83.38,0-125.73-41.56-125.73-96.61s40.23-96.61,136.58-96.61c49.23,0,92.91,11.38,104.82,14.82v50.03h-31.76Z"/>
    <path class="cls-1" d="M2350.4,372.79h19.59l-15.09-9.53-34.41-24.88h-57.97v34.41h29.12v31.76h-97.67v-31.76h34.41v-121.76h-34.41v-31.76h182.64c39.7,0,71.47,15.09,71.47,59.56s-32.29,58.5-71.2,58.5h-6.35l50.56,35.47h34.15v31.76h-104.82v-31.76ZM2377.39,306.36c20.65,0,35.74-6.88,35.74-27.53s-14.82-27.79-35.47-27.79h-115.14v55.32h114.87Z"/>
    <path class="cls-1" d="M2633.63,215.3c88.14,0,132.35,36.79,132.35,96.61s-44.21,96.61-132.35,96.61-132.34-36.79-132.34-96.61,44.2-96.61,132.34-96.61ZM2633.63,376.5c64.06,0,97.41-24.62,97.41-64.58s-33.35-64.85-97.41-64.85-97.67,24.62-97.67,64.85,33.62,64.58,97.67,64.58Z"/>
    <path class="cls-1" d="M2942.79,215.3c88.14,0,132.35,36.79,132.35,96.61s-44.2,96.61-132.35,96.61-132.34-36.79-132.34-96.61,44.2-96.61,132.34-96.61ZM2942.79,376.5c64.06,0,97.41-24.62,97.41-64.58s-33.35-64.85-97.41-64.85-97.67,24.62-97.67,64.85,33.62,64.58,97.67,64.58Z"/>
    <path class="cls-1" d="M3243.76,372.79h45v31.76h-124.14v-31.76h45v-121.76h-66.17v29.12h-31.76v-60.88h230.28v60.88h-31.76v-29.12h-66.44v121.76Z"/>
    <path class="cls-1" d="M3383.79,337.59h31.76v28.85c26.74,6.88,52.68,10.32,83.38,10.32,17.47,0,72.79-2.12,72.79-26.73,0-16.68-27.26-18-72.26-20.38-53.2-2.91-114.35-6.09-114.35-55.58s61.67-58.76,106.67-58.76c30.18,0,68.82,4.24,100.32,11.12v52.67h-31.76v-25.94c-22.5-3.71-47.91-6.09-74.11-6.09-13.24,0-66.44,1.32-66.44,25.15,0,21.44,41.82,23.03,81.26,24.62,52.14,2.12,105.35,7.15,105.35,51.62,0,50.29-66.97,60.08-113.55,60.08-34.94,0-72.26-5.56-109.05-18v-52.94Z"/>
  </g>
  <g>
    <path class="cls-1" d="M860.59,558.56l-27.42,1.8c-.49-16.32-7.02-24-18.77-24-13.22,0-20.24,12.24-20.24,37.87s7.18,34.93,21.55,34.93c10.29,0,17.47-7.35,19.43-21.06l25.47,1.63c-2.78,25.14-20.08,40.81-46.2,40.81-30.36,0-49.46-23.51-49.46-57.63s19.59-57.63,50.28-57.63c26.61,0,42.28,14.53,45.38,43.26Z"/>
    <path class="cls-1" d="M936.16,516.93v43.75h34.61v-43.75h26.12v111.99h-26.12v-46.2h-34.61v46.2h-26.12v-111.99h26.12Z"/>
    <path class="cls-1" d="M1099.72,516.93c11.92,0,17.79,1.14,23.34,3.59,10.61,4.73,18.28,16,18.28,30.04,0,12.9-7.18,24.32-19.43,28.89l20.73,49.46h-29.06l-17.14-44.24h-19.1v44.24h-26.12v-111.99h48.48ZM1077.35,536.85v28.57h21.71c10.45,0,15.18-7.51,15.18-15.02,0-5.71-3.75-13.55-15.67-13.55h-21.22Z"/>
    <path class="cls-1" d="M1191.61,628.91v-111.99h26.12v111.99h-26.12Z"/>
    <path class="cls-1" d="M1351.58,541.58l-22.2,7.35c-3.26-9.63-9.3-13.22-19.26-13.22s-15.51,3.75-15.51,10.45c0,5.55,4.73,9.14,13.71,10.77,11.59,2.12,23.51,5.06,30.85,9.47,6.69,3.92,15.51,12.08,15.51,26.93,0,11.26-6.86,37.22-46.36,37.22-24.16,0-40.81-11.59-45.22-31.02l24.16-5.55c2.77,10.61,10.61,15.83,23.18,15.83,10.45,0,17.63-4.41,17.63-12.08,0-5.88-4.41-9.47-16.65-11.92-17.14-3.27-28.57-7.67-34.12-13.39-5.55-5.71-8.33-12.24-8.33-21.71,0-20.41,15.83-35.42,40.32-35.42,22.69,0,36.4,9.31,42.28,26.28Z"/>
    <path class="cls-1" d="M1477.92,516.93v22.2h-28.08v89.78h-26.12v-89.78h-28.4v-22.2h82.6Z"/>
    <path class="cls-1" d="M1524.6,628.91v-111.99h26.12v111.99h-26.12Z"/>
    <path class="cls-1" d="M1662.86,516.93l35.1,111.99h-28.24l-6.85-23.02h-36.24l-7.02,23.02h-23.02l36.08-111.99h30.2ZM1632.99,585.33h23.83l-11.92-39.18-11.92,39.18Z"/>
    <path class="cls-1" d="M1771.08,516.93l37.38,65.79h.33v-65.79h20.24v111.99h-22.36l-42.93-75.25h-.65v75.25h-20.24v-111.99h28.24Z"/>
    <path class="cls-1" d="M2055.43,558.56l-27.42,1.8c-.49-16.32-7.02-24-18.77-24-13.22,0-20.24,12.24-20.24,37.87s7.18,34.93,21.55,34.93c10.28,0,17.47-7.35,19.43-21.06l25.47,1.63c-2.77,25.14-20.08,40.81-46.2,40.81-30.36,0-49.46-23.51-49.46-57.63s19.59-57.63,50.28-57.63c26.61,0,42.28,14.53,45.38,43.26Z"/>
    <path class="cls-1" d="M2196.13,572.76c0,30.36-14.85,57.79-48.64,57.79s-47.02-29.71-47.02-57.79c0-33.63,18.12-57.46,48.32-57.46,36.73,0,47.34,34.77,47.34,57.46ZM2148.96,609.16c15.67,0,19.75-17.3,19.75-36.24s-3.92-36.24-20.41-36.24c-15.35,0-20.4,16.49-20.4,36.08,0,24.65,7.02,36.4,21.06,36.4Z"/>
    <path class="cls-1" d="M2302.72,516.93l35.1,111.99h-28.24l-6.85-23.02h-36.24l-7.02,23.02h-23.02l36.08-111.99h30.2ZM2272.85,585.33h23.83l-11.92-39.18-11.92,39.18Z"/>
    <path class="cls-1" d="M2470.85,558.56l-27.42,1.8c-.49-16.32-7.02-24-18.77-24-13.22,0-20.24,12.24-20.24,37.87s7.18,34.93,21.55,34.93c10.28,0,17.47-7.35,19.43-21.06l25.47,1.63c-2.77,25.14-20.08,40.81-46.2,40.81-30.36,0-49.46-23.51-49.46-57.63s19.59-57.63,50.28-57.63c26.61,0,42.28,14.53,45.38,43.26Z"/>
    <path class="cls-1" d="M2546.42,516.93v43.75h34.61v-43.75h26.12v111.99h-26.12v-46.2h-34.61v46.2h-26.12v-111.99h26.12Z"/>
    <path class="cls-1" d="M2661.5,628.91v-111.99h26.12v111.99h-26.12Z"/>
    <path class="cls-1" d="M2770.86,516.93l37.38,65.79h.33v-65.79h20.24v111.99h-22.36l-42.93-75.25h-.65v75.25h-20.24v-111.99h28.24Z"/>
    <path class="cls-1" d="M2970.33,553.66l-24.81,3.43c-1.47-13.06-8.65-20.73-19.75-20.73-13.87,0-21.22,14.2-21.22,37.87,0,21.55,8,35.1,22.36,35.1,10.94,0,18.61-7.35,18.61-17.96v-1.47h-21.22v-20.9h46.04v59.91h-11.92l-3.75-12.9c-8,9.96-17.47,14.53-30.53,14.53-29.71,0-46.36-23.18-46.36-56.65s17.79-58.6,48.65-58.6c23.51,0,40.16,14.04,43.91,38.36Z"/>
  </g>
</svg>